<svg xmlns="http://www.w3.org/2000/svg" xmlns:xlink="http://www.w3.org/1999/xlink" viewBox="0 0 213 384.06"><defs><style>.cls-1{fill:#7acc32;}.cls-2{fill:#6fbb5d;}.cls-3{fill:#bcd9d9;}.cls-4{fill:#ecf3f3;}.cls-5{fill:#dfecec;}.cls-6{fill:#d0e4e4;}.cls-7{fill:#79cb34;}.cls-8{fill:#74c446;}.cls-9{fill:#68b273;}.cls-10{fill:#bbd8d8;}.cls-11{fill:#bad8d8;}.cls-12{fill:#aed0d2;}.cls-13{fill:#aacfcd;}.cls-14{fill:#76c73e;}.cls-15{fill:#67b275;}.cls-16{fill:#b3d3d4;}.cls-17{fill:#76c73f;}.cls-18{fill:#75c740;}.cls-19{fill:#75c642;}.cls-20{fill:#67ae86;}.cls-21{fill:#b3d3d5;}.cls-22{fill:#b4d4d5;}.cls-23{fill:#f3f6f6;}.cls-24{fill:#f2f6f6;}.cls-25{fill:#67b080;}.cls-26{fill:#67b081;}.cls-27{fill:#67af81;}.cls-28{fill:#67af82;}.cls-29{fill:url(#linear-gradient);}</style><linearGradient id="linear-gradient" y1="192.03" x2="213" y2="192.03" gradientUnits="userSpaceOnUse"><stop offset="0" stop-color="#fff" stop-opacity="0.3"/><stop offset="0.5" stop-color="#fff" stop-opacity="0"/><stop offset="1" stop-color="#fff" stop-opacity="0.76"/></linearGradient></defs><title>logo2</title><g id="Layer_1" data-name="Layer 1"><path class="cls-1" d="M382.36,433.35c5.16,0,10.14,1.68,15.08,3.59a86.75,86.75,0,0,1,21.85,12.74c.84.66,1.16,1,.67,2.47a157.17,157.17,0,0,1-12.09,27.18c-5.15,9.06-11,17.07-18.08,23.19-6.17,5.32-12.8,8.75-20.06,9.84-9.75,1.45-19.22-.37-28.55-4.35-7.3-3.11-14.16-7.63-20.85-12.69a.56.56,0,0,1,.09-.61,1.38,1.38,0,0,1,.45-.29c10.82-2.09,21.31-5.84,31.11-12.73A64.63,64.63,0,0,0,371.85,460a89.51,89.51,0,0,0,8.8-24.47C380.9,434.45,380.9,432.74,382.36,433.35Z" transform="translate(-214 -222.89)"/><path class="cls-2" d="M319.77,495.49a81.71,81.71,0,0,1-29.15,15.63,52.14,52.14,0,0,1-9.64,1.73A38.41,38.41,0,0,1,253.85,505c-7.32-5.48-13.37-13.06-18.78-21.76a151.26,151.26,0,0,1-13.93-29.68c-1.3-3.7-1.13-3,1.06-4.64a83.37,83.37,0,0,1,28.17-14.45c2.74-.77,5.56-1.05,8.34-1.56l.23.1c1.12,1.82,1.07,4.25,1.59,6.37,4.13,16.83,11.88,29.41,22.69,38.54a73.78,73.78,0,0,0,25,13.89,61.93,61.93,0,0,0,10.88,2.74A1.18,1.18,0,0,1,319.77,495.49Z" transform="translate(-214 -222.89)"/><path class="cls-3" d="M281.24,344.05v-27.8a2.4,2.4,0,0,1,2.3-.82q36.79,0,73.57,0a2.39,2.39,0,0,1,2.3.82q0,14.34,0,28.69c-.76-.06-1.49-.12-1.54,1.42a1,1,0,0,1-.78,1A1.66,1.66,0,0,0,356,348.5c-.24,1-.64,1.32-1.36.89s-.6-1.29-.49-2.12a5.42,5.42,0,0,1,.53-1.7c-.54-.43-1.1-.21-1.66-.2-2.24,0-4.5-.17-6.72,0-1.91.18-3.83-.6-5.71.2-.6.25-1.1-.31-1.63-.26-2.05.22-4.13-.32-6.15.27-1.12.33-2.1-.83-3.25-.3a2.57,2.57,0,0,1-.87.37c-1.06.05-2.38-1.2-3.05-.22s-.26,3-.75,4.44c-.32.9-.41,2.09-1.22,2.58-1-.06-1.48-1.18-2.06-2-.87-1.25-1.62-1.28-2.48,0-1.63,2.42-3.45,4.6-5,7.18-.35.59-.68,1.19-1.27,1.33-1,0-1-1-.88-1.94a16.18,16.18,0,0,0,.2-3.16c-.12-1.35.61-3.4-1.32-3.67-.84-.11-.42-1.54-.71-2.31-1.39,2.1-2.12,1.22-2.95-1.59-1,.09-1,1.46-1.41,2.25-.56.4-.77-.12-.91-.71-.1-.43.15-1.45-.58-.54l-.12-.15a4.41,4.41,0,0,1-.36-1.46c-.1-.49-.23.14-.38.19-.51.16-.61-.62-.91-.73-.72-.26-.38,1.35-1,1.31-.11,0-.21-.14-.3-.14-.4,0-.21-1-.76-.76-.74.26-1.43.16-1.12,1.89.4,2.18,0,2.46-1.58,1.63-.59-1-.21-2.4-.87-3.57-.37.71-.41,1.76-1,2.12s-.69.35-.8,1.19c-.09.65-.08,1.5-.67,1.64s-1.24-.34-1.65-1.13-.64-1.69-1-2.5c-.22-.49-.28-1.05-.74-.37a1.48,1.48,0,0,1-.69-.8c0,.44.49,1,0,1.5s-.7-.16-.95-.54a4.09,4.09,0,0,0-4.65-1.89c-.77.14-1.22.19-1.21,1.46,0,.93-.3,1.55-1.09,1.56-1,0-.71-1-.83-1.74A5.28,5.28,0,0,0,281.24,344.05Z" transform="translate(-214 -222.89)"/><path class="cls-4" d="M281.22,261.53c0-8.35,0-16.69,0-25,0-1.73.29-2.36,1.62-2.36q37.51.09,75,0c1.34,0,1.64.63,1.63,2.36-.06,8.35,0,16.69,0,25-.87,1.06-1.95.8-3,.8q-19.53,0-39.07,0-16.61,0-33.22,0C283.17,262.33,282.1,262.59,281.22,261.53Z" transform="translate(-214 -222.89)"/><path class="cls-5" d="M281.22,261.53h78.21v27.36c-.88,1.06-1.95.79-3,.79q-20.69,0-41.35,0-15.56,0-31.09,0c-1,0-2,.23-2.8-.79Q281.23,275.21,281.22,261.53Z" transform="translate(-214 -222.89)"/><path class="cls-6" d="M281.23,288.89h78.2q0,13.68,0,27.36H281.24Q281.24,302.57,281.23,288.89Z" transform="translate(-214 -222.89)"/><path class="cls-2" d="M258.71,432.91c-.65-5.19-1.46-10.33-1.77-15.61a183,183,0,0,1-.31-19.88c.3-6,.72-12,1.49-18,.46-3.47.79-3.71,3.33-2.67.24.71.55.39.86.12,4,.42,7.92,2,11.81,3.36,2.38.85,4.72,1.94,7.08,2.93a1,1,0,0,1,1.1,0,71.23,71.23,0,0,1,14,9.45,2.94,2.94,0,0,1,.6.77,2.4,2.4,0,0,1,.18.61,10.4,10.4,0,0,1-.6,3.49,93.52,93.52,0,0,0-3.06,19.89,88.24,88.24,0,0,0,1.48,20.9c.7,3.36,1.24,6.81,2.23,10.07.55,1.81.33,2.32-.9,2.42a53.49,53.49,0,0,0-17.71-14,36.58,36.58,0,0,0-9.19-2.75,46.57,46.57,0,0,0-8.42-.43,2.66,2.66,0,0,1-2.18-.65Z" transform="translate(-214 -222.89)"/><path class="cls-7" d="M359.77,383.3a73,73,0,0,1,14.43-5.52,46,46,0,0,1,6.71-1.4c.86-.11,1.2.27,1.37,1.55a195.36,195.36,0,0,1,1.56,37.39,120.28,120.28,0,0,1-2,16.7c-.11.18-.12.46-.22.6-1,1.43-3.95.06-4.33-2.09-.41.85.75,1.85-.11,2.48-.57.42-1.24,0-1.84,0-1.5-.06-3.36-1-4.38-.21s-2.1.89-3.1,1.47a3.25,3.25,0,0,1-1.09.39c-1,.17-2.17-.36-3.05,1-.25.39-.69.23-1.06-.06-.55-.43-1.28,0-1.57.83s-2.67,2.35-3.25,2.1-.57-.84-.55-1.48c-.1.9.09,2.47-1.08,1.51-.55-.46-.28.22-.28.23a2,2,0,0,1-.71,1.16c-1.48,1.4-1.81,1.22-2.13-1.34,0,0-.1.06-.07.24.56,4-2.18,4.14-3.5,5.92-.47.62-.83-.43-1.29-.34.07.68.17,1.37-.36,1.82a7.39,7.39,0,0,0-2.43,2.83c-.46,1.06-1.13.32-1.44-1.74.47-3.66,1.51-7.1,2.1-10.73a95.78,95.78,0,0,0-2-39.39,9.91,9.91,0,0,1-.47-2.4,4.52,4.52,0,0,1,.09-1c.54-1.66,1.68-2.09,2.75-2.65.88.34,1.72.56,1.79-1.3a30,30,0,0,1,9.64-6.09c.86,0,1.08.74,1,1.81s-.38,2.19-.48,3.62a4.68,4.68,0,0,0,1.14-3.61A4.24,4.24,0,0,1,359.77,383.3Z" transform="translate(-214 -222.89)"/><path class="cls-8" d="M344.44,447.52c0,.59-.07,1.46.46,1.5s.72-.61.77-1.43c0-.44-.15-2.11,1-1,.47.44,1.38-1.47,1.07-2.36-.17-.48-.51-.94-.06-1.35s.53.28.78.51.09,1.43,1,.83c1.07-.7-.39-1.24.37-2,.29-.14.66,1,1.47.37,1.34-1.05,1.51-.8,1-3-.16-.68-.22-.89.33-1.08.38-.12.63-.34.83.37.15.53.1,1.8.74,1.31a2.86,2.86,0,0,0,1.45-1.74c.11-.5-.13-1.11.38-1.54.51.19.18,1.11.45,1.57,1.42-.65-.39-2.19.49-2.95a2.33,2.33,0,0,0,.23.19c.7.49.07,2.28.7,2.2.89-.1,1.73-1,2.68-1.18.09,0,.26-.2.25-.23-.4-1.37-.05-1.79.94-1.59.09,0,.26-.75.43-1.26.53,1.67,1.08,2.43,2.15.6.33-.57,1.33.13,2-.41,0,0,.17.15.25.23.87.81,1.16-1.41,2.22-.66s1.53-1.13,2.19-2c.43.12.38,2.52,1.23.52.3,1.08,1.21-1.66,1.53.52.07.53,1.23.08,1.54-1.32.1,2.21,1.09,1.48,2,1.47a4.07,4.07,0,0,1-.13-2.87c.67,2.43,3.3,3.68,4.71,2.24a2.22,2.22,0,0,0,.49,1.33c-.84,0-1,.87-1.16,1.82a91.82,91.82,0,0,1-8.31,24,65.73,65.73,0,0,1-18.14,21.2,75.75,75.75,0,0,1-22.33,11.73,53,53,0,0,1-11.77,2.85c-.22-.95.31-1.38.69-1.86a129.91,129.91,0,0,0,13.36-21.59,111.77,111.77,0,0,0,8.22-20.84C343.23,449.51,343.17,447.83,344.44,447.52Z" transform="translate(-214 -222.89)"/><path class="cls-9" d="M296.54,450.7c.89-.05.59-1.1.45-1.48-.79-2.18-.79-4.77-1.43-6.75a43.35,43.35,0,0,1-1.55-7.16,89.6,89.6,0,0,1,.63-31.2c.7-3.33,1.58-6.57,2.22-9.92,1.08-.2,1.83.81,2.58,1.56A70,70,0,0,1,317.06,425a125.75,125.75,0,0,1,3.29,13.32c2.15,9.51,2.49,19.32,2.52,29.19a205.34,205.34,0,0,1-1.54,24,9.08,9.08,0,0,1-1,3.55c0,.12,0,.24,0,.36l-.56.17-.75-.55a.92.92,0,0,1-.11-.83c.42-.59.08-1.11-.09-1.63a142.7,142.7,0,0,0-13.32-28.64,79.54,79.54,0,0,0-6.83-10c-.5-.59-.92-1.3-1.66-1.17A1.72,1.72,0,0,1,296.54,450.7Z" transform="translate(-214 -222.89)"/><path class="cls-10" d="M323.58,352.25a14.56,14.56,0,0,0,1.33-5.58c0-1.48.89-1.8,1.28-2.73,0-.07.3,0,.4.08,1.52,1.56,2,1.56,3.43,0,.11-.11.39-.15.41-.1.7,2.07,2.06.58,3.05,1.1.41.21.31-.35.37-.68.11-.61.37-.76.63-.16.82,1.86,2.12.3,3.12.87.37-2.41,1.19-.12,1.64-.08,1,.09,1.77.29,2.45-.83.16-.27.39-.48.51-.17.74,1.94,2,.79,3.05,1.1.4.12.28-.46.34-.81s.28-.6.59-.23c1.3,1.56,1.71,1.54,3.42,0,.1-.1.38-.11.41,0,.74,1.87,2,.85,3,1.12.29.07.38-.21.35-.56s.06-.58.3-.69c.09,1.06,1.74.63,1.14,2.25-.24.64-.2,1.34-.43,1.94-.35.92.3.69.54.94.42.45.55.15.58-.45.05-.89.36-1.08,1-1.33,1-.37,1.72-1.49.73-3.35.73.81,1.66,0,2.14,1.11q0,13,0,26c-1.45-.43-2.84.52-4.27.33-.6-.08-1.33.34-1.71-.77-.1-.3,0,0-.05.05-.68.71-1.53,1.2-2.1.2a1.54,1.54,0,0,1,.66-2.26.32.32,0,0,0,.21-.3c-.11,0-.23.08-.32,0-.65-.31-.51-1.23-.7-1.83a17.69,17.69,0,0,0,0,3.09c0,.52.27,1.29-.4,1.48a1,1,0,0,1-1.35-.79,4.25,4.25,0,0,0-1.76-2.69c-1-.92-1-3.54-.29-5.6.32-.36,1,0,1-.84.26-2.6,1-1.33,1.78-.26.22-1.85-1.45-1.35-1.4-2.77-.76,1.2-.63,2.82-1.38,3.84-.57.09-.6-.73-1.06-1,.54,2.37.1,5.13,1.58,7.12a2.49,2.49,0,0,1,.39,2.44c-.34,1.12-1,.62-1.56.68s-.84-.45-1.42,0-.7-.37-.61-1.08.64-1.42.63-2.2c-1,.15-1,1-.73,2.09a1.18,1.18,0,0,1-.15,1.05c-.32.35-.89.54-1,.17-.47-1.12-.87.11-1.31-.05-1-.36-.77-1.4-.7-2.2.13-1.47-.45-2.68-.58-4,0-.49-.42-.63-1.21-.68,1.35,1.52,1.46,3.37,1.69,5.19.17,1.38-.23,1.6-1.11,1.78-1.73.36-3.47-.45-5.18.22a1.91,1.91,0,0,1-1-1.05c-1.57-2.79-3.12-5.6-4.77-8.29a4,4,0,0,1-.61-1.82c.34-1.52-.71-2.42-.91-3.73,0-.3-.47.59-.85.58A6.72,6.72,0,0,1,323.58,352.25Z" transform="translate(-214 -222.89)"/><path class="cls-11" d="M281.24,344.05c.72.46.6,1.54.7,2.31s0,.77.54.89c.78.16.75-.58.66-1-.59-2.46.43-2.37,1.61-2.11.16,0,.33.17.47.11,1.94-.83,3.37.23,4.53,2.34.09.16.25.22.61.53-.32-1.05-.72-1.87-.19-2.67l.83,1.86c1.52,1,.4,2.54.42,3.85.48-.41.75-1.46,1.54-1.11.38.68,1,.78,1.49,1,.48-1.33-.09-2.87.58-4.2.4.28.22,1.22.71,1.39a6.69,6.69,0,0,0,.73-2.91c1.54,1.13,1.24,3,1.37,4.7a1.86,1.86,0,0,1,.78,1.76c.83-.75.38-2.76,1-3.05s1.06-1.35,1.79-1.44c0,0,.11-.08.12-.14.15-.73-.19-1.76.84-1.88.79-.09.22,1.44.95,1.17.51-.21.21-1.05.6-1.59l.42,3.35c.7.53.35,1.27.18,1.94a10.58,10.58,0,0,0-.33,3.42c-.59-2,1.87-2,1.45-4a4.52,4.52,0,0,1,.46-2.33c.36-.72,1.14,0,1.33-1,.4.36.25.85.24,1.38,0,1,1.05,1,1.12,2a1.72,1.72,0,0,0,.9-1.21c.11-.38,0-1.06.46-.88a1.45,1.45,0,0,1,.67,1.41c0,1.42,0,1.42,1.07,1.51l.23.05c-.13,1.44,1,2.56.55,4.06-.37,1.32.06,2.76-.34,4.09-.11.41,0,.92.49.88a1.45,1.45,0,0,1-.22,1.25c-2.06,3.52-4.07,7.09-6.1,10.66a1.55,1.55,0,0,1-.79.75c-1.45,0-3,.15-3.92-2.16-.19,2.31-1.42,2.31-2.4,2.1-2.35-.5-4.68-.16-7-.24-1.78-.07-3.55.49-5.34-.1-.46-.15-1,.22-1.52.22-1.06,0-1.41-.44-1.15-2.07-.8,1.86-1.68,2.9-3.13,1.89Q281.25,357.5,281.24,344.05Z" transform="translate(-214 -222.89)"/><path class="cls-12" d="M334.94,371a2,2,0,0,1,2.6-.22c1,.59,2-.83,3.15-.17.38.23.55-.57.31-.88a2.54,2.54,0,0,1-.21-2.81.46.46,0,0,0-.24-.64,2.46,2.46,0,0,1-1.07-2.61c.42-.8,1,.1,1.45.35a1.69,1.69,0,0,1,.42,2,1.56,1.56,0,0,0-.08.85c.19.66,1-1,1,.45,0,.6-.62,1.09-.56,1.83.05.53-.48,1.43.4,1.51.71.07.81-.67,1-1.45a6.75,6.75,0,0,0,.21,1.38c.19.54.61.25.87.14.44-.18,0-.54,0-.85a10.47,10.47,0,0,1-.31-3.4l.79,2.25a7.32,7.32,0,0,0,.36-1.12c0-.44-.72-.88-.13-1.27.4-.26.64.37.72.93a7.31,7.31,0,0,1-.71,3.54c.73-2.05,1.58-.18,2.32-.2,1.13,0,1-1.28.84-1.5-1.12-1.31-1-3.4-1.62-4.74-.8-1.8-.38-3.14-.39-4.88.9.48.88,1.73,1.37,2.41h0c0,1.86-.85,3.84.49,5.5.61.76.93.85.85-1,.38,1.54.62,2.5.85,3.47.18.73.46,1,1.06.71s.28-1,.17-1.28a4.32,4.32,0,0,1,.36-3.78c.12.7.65,1.14.58,2,0,.3-.07.61.29.41s.27-1.12.63-.23a1.36,1.36,0,0,1-.42,1.49c-.82-.14-1.17.44-.86,1.31.43,1.15,1.21-.29,1.81.16.52-2.89.05.7.69.3,1-.62,2.63.45,3.41-.34,1.12-1.13,1.44.34,2.12.46l.06,12.25c-.14,1.12-.94.49-1.32,1a51.26,51.26,0,0,0-9.76,6c-.3,1.07-1.09.9-1.66,1.29-.88.72-1.91,1.09-2.62,2.22-.82.15-1-.85-1.17-1.53A130.5,130.5,0,0,0,335.26,373,2.24,2.24,0,0,1,334.94,371Z" transform="translate(-214 -222.89)"/><path class="cls-12" d="M281.25,370.94c1.51.11,2.5-.85,2.92-3.24.38.77.82,1.31.74,1.57-.6,2.15,1.1,1.42,1.13,1.38.95-1.15,2.31,1.37,3.11-.67.58,1.89,1.77-.44,2.46.7.77-1,2,.63,2.68-.91.45,1,.93.66,1.42.06.37,1.66,1.52-.47,2,.8.13-.57.92.39.83-.71,0-.15.18-.52.23-.24.33,2,1.18.76,1.93.79,1.61,0-.06-2,1.06-2.29.68,2.42,2.37,2.5,4,2.78.37.85-.08,1.43-.36,2a131.38,131.38,0,0,0-7.47,18.74,3.42,3.42,0,0,1-1,2A90.1,90.1,0,0,0,281.2,383.2Q281.23,377.07,281.25,370.94Z" transform="translate(-214 -222.89)"/><path class="cls-13" d="M299.1,585.21h-4.88c-1.07,0-1.09.68-.54,1.68a4.49,4.49,0,0,0,3.89,2.39,8.06,8.06,0,0,0,4.81-.81c.84-.45,1.23-.25,1.36,1.19.4,4.38.45,4.39-2.8,5.18-3.92,1-7.59.43-10.52-3.84s-2.8-12.66.06-18c2.29-4.25,7.1-5.49,10.77-2.81a8.06,8.06,0,0,1,2.92,4.42,30.9,30.9,0,0,1,1.16,8.42c0,1.55-.35,2.22-1.5,2.15C302.25,585.14,300.68,585.21,299.1,585.21Z" transform="translate(-214 -222.89)"/><path class="cls-13" d="M367.92,585.89c.46-.41.47-1.14.59-1.76q1-5.26,1.88-10.56c.81-4.72.89-4.8,4.39-4.34.81.11,1.07.52.85,1.59-2,9.28-3.57,18.74-6.82,27.4-2,5.3-5,7.12-9.05,5.74-1.18-.4-1.54-1.18-1.17-2.74a9.83,9.83,0,0,0,.26-1.55c.12-1.66.58-2,1.78-1.45,2.06.89,3.87-.65,4.67-3.48a2.94,2.94,0,0,0-.21-1.92,184.39,184.39,0,0,1-5.72-21.23c-.4-1.9-.14-2.39,1.25-2.37,3.23,0,3.17,0,4.09,4.43.77,3.7,1.49,7.44,2.57,11C367.42,585.11,367.45,585.7,367.92,585.89Z" transform="translate(-214 -222.89)"/><path class="cls-13" d="M327.82,585.25c0,2.36,0,4.71,0,7.07,0,1,0,1.82-.94,2-3.21.61-6.39,1.34-9.68.55-4-1-5.57-5.45-4.67-10.37a6,6,0,0,1,3.41-4.75,8.61,8.61,0,0,1,6.09-.66c.37.11.79.35,1.06-.14a2.12,2.12,0,0,0-.09-1.72,3.18,3.18,0,0,0-3.05-2.48,10.4,10.4,0,0,0-4.35.5c-.79.28-1-.08-1.15-1.17-.47-4.31-.49-4.23,2.65-4.9a10.21,10.21,0,0,1,5.15,0c3.86,1.13,5.49,3.79,5.56,9.29C327.84,580.7,327.82,583,327.82,585.25Z" transform="translate(-214 -222.89)"/><path class="cls-13" d="M344.21,584.9c0,2.76,0,5.52,0,8.28,0,1.26-.32,1.54-1.12,1.62-3.58.34-3.58.37-3.58-4.55,0-4.48,0-9,0-13.44,0-1.53-.26-2.34-1.44-2.09a1.82,1.82,0,0,1-.33,0c-2.42,0-3-1.18-2.45-4.52.14-.78.46-.89.93-1,1-.12,2.25.61,3-.35s.15-2.75.34-4.15c.62-4.74,3.06-7.82,6.61-8.23a12.83,12.83,0,0,1,5.15.69c1.37.41,2,1.17,1.59,3.43-.56,2.94-.42,3-2.52,2.27a7.69,7.69,0,0,0-2.4-.51c-2.77,0-3.95,1.77-3.8,5.63,0,1.3.64,1.21,1.23,1.22,1.68,0,3.37.07,5.05,0,1-.05,1.55.35,1.42,1.9a15.58,15.58,0,0,0,0,2c.07,1.22-.35,1.58-1.16,1.55-1.74,0-3.48.09-5.21-.05-1.13-.09-1.39.57-1.37,2,0,2.76,0,5.51,0,8.27Z" transform="translate(-214 -222.89)"/><path class="cls-13" d="M275,572.49c0,4,.14,8.07,0,12.08-.2,4.66,1.94,5.15,4.29,4.57.63-.15,1.78-2.31,2.09.25.52,4.25,1.06,4-1.25,5.05a9.1,9.1,0,0,1-2.7.76c-4.59.5-7.19-2.9-7.25-9.61s0-13.52,0-20.28c0-2.9,0-2.9-2.15-2.9a4.49,4.49,0,0,0-1,0c-1.58.34-2.18-.36-2.14-2.79,0-2.23.5-2.87,2-2.73a38.77,38.77,0,0,0,6.19,0c1.44-.11,2,.4,1.94,2.6C274.92,563.83,275,568.17,275,572.49Z" transform="translate(-214 -222.89)"/><path class="cls-14" d="M358.14,384.16l1.32-1,.31.11c.67,2,.17,3.94-.16,5.92-.25,1.49-.84-.2-1.27.4-.22.29-.44-.64-.27-1.11a15.44,15.44,0,0,0,.59-3.49C358.72,384.39,358.5,384.22,358.14,384.16Z" transform="translate(-214 -222.89)"/><path class="cls-8" d="M262.31,376.91c0,1-.57.65-.87.58s-.31-.46,0-.7Z" transform="translate(-214 -222.89)"/><path class="cls-2" d="M320.34,495c2.63-18.88,3.2-37.74-.34-56.55a60.57,60.57,0,0,0,1.41-6.23C325.1,416.34,332,404,341.89,394.82c.66-.62,1.42-1.73,2.23-.17.93,4.37,2,8.68,2.66,13.17a96.37,96.37,0,0,1,.46,24.18c-.55,5.31-1.8,10.37-2.8,15.52-1.36,3-1.94,6.54-3.1,9.71a143.07,143.07,0,0,1-11.9,24.8c-2.75,4.56-5.73,8.78-8.79,12.91Z" transform="translate(-214 -222.89)"/><path class="cls-15" d="M319,494v.91c-3.47,0-6.79-1.29-10.15-2.29a72.28,72.28,0,0,1-21.84-11,67,67,0,0,1-23.77-31.77,94.4,94.4,0,0,1-4.5-16.93c6-.21,12-.11,17.85,2.28a50.32,50.32,0,0,1,19,13.94,11.94,11.94,0,0,1,1,1.52l.65,1.85c.12-.19.34-.32.42-.18,1.05,2,2.19,4,1.89,6.7a1.49,1.49,0,0,0,.54,1.59c1.69,1.58,1.94,2.81.84,5.23a20.29,20.29,0,0,0-.82,2.26c.23-1.19,1.44-1.51,1.61-3.09.08-.72.68-.31,1,.18a20.24,20.24,0,0,1,2,4.65c.1.28.15.78,0,.85-1.16.52-.32,1.29-.16,2,.48-1.86.74-2,1.41-.55,1.64,3.63,4.15,6.43,5.25,10.54.4,1.48,2,1.3,2,3.13,1.73.7,1.81,2.38,1.39,4.43a6.11,6.11,0,0,0,0,1.6c.42-.44.43-1.2.78-1.65s.69-.77,1-.39C317.39,491,318.78,491.85,319,494Z" transform="translate(-214 -222.89)"/><path class="cls-8" d="M344.12,394.65c-.77-.72-1.31,0-1.9.56-9.66,8.92-16.49,21-20.23,36.33a39.14,39.14,0,0,0-1.23,6c0,.5-.05,1.37-.76.85A124.52,124.52,0,0,0,316,423a69,69,0,0,0-12.24-21.8,45.55,45.55,0,0,0-6.86-7v-.5a122.34,122.34,0,0,1,8.43-21.55,10.26,10.26,0,0,0,.43-1.18l7.13-12.32c1.76-2.54,3.5-5.1,5.28-7.61,2.18-3.08,2.19-3.06,4.36-.1.35.47.73.88,1.1,1.32l3.21,4.66a6.21,6.21,0,0,1,2,3.14L334.94,371c1.59,4,3.58,7.67,5.12,11.73,1.09,2.87,2.15,5.74,3.08,8.71a5,5,0,0,0,1,2.28Z" transform="translate(-214 -222.89)"/><path class="cls-16" d="M301.43,346.32c-.56.32-.35,2.19-1.48,1.44a1.68,1.68,0,0,0-.4.85c.32,1.41-.59,2.11-.9,3.38l-.81-2.94c.42-.48.79.08,1.28.15-.06-.71-.08-1.37-.19-2-.38-2.2-.4-2.16,1-1.71.52.17.36-.79.66-1.05Z" transform="translate(-214 -222.89)"/><path class="cls-16" d="M305.66,348.6c.3,1,.76,2.08-.65,2.23-.41,0-.69.74-.6,1.42a1.62,1.62,0,0,1-.31,1.58c-.19-1.82-.58-3.51.12-5.15a1.69,1.69,0,0,0,.14-1.45c.15-.3.29-.6.46-.93C305.42,346.82,304.83,348.25,305.66,348.6Z" transform="translate(-214 -222.89)"/><path class="cls-16" d="M293,349.06a8.78,8.78,0,0,0-1.78,2.41c-.65-.84-.18-1.68,0-2.44a3.12,3.12,0,0,0-.19-2.71c.58-.43-.23-1.57.65-2C291.42,346.29,292.86,347.26,293,349.06Z" transform="translate(-214 -222.89)"/><path class="cls-17" d="M362.6,398.59c1,0,.78,1,1,1.65.57-.22.27-1.07.64-1.55a17.83,17.83,0,0,1,.74,3.93c0,.76-.89,0-1.06-.31A6.66,6.66,0,0,1,362.6,398.59Z" transform="translate(-214 -222.89)"/><path class="cls-18" d="M372,397c.25-.26-.33-1.08.31-1.2.48.24.53,2.85.05,3.93a5.37,5.37,0,0,1-1-1.85c-.27-.57-1-1.12-.4-1.81C371.29,395.66,371.36,397.15,372,397Z" transform="translate(-214 -222.89)"/><path class="cls-17" d="M360.8,396.7c-.28-1.36-1.42-2.23-.62-3.76.25-.47.58-.39.81,0A3,3,0,0,1,360.8,396.7Z" transform="translate(-214 -222.89)"/><path class="cls-17" d="M381,403.81c.63-1.57,1.58-2.55,1.67-4.66C383.36,402.83,383.1,403.53,381,403.81Z" transform="translate(-214 -222.89)"/><path class="cls-18" d="M371.69,385.45c.58,1.38-.13,2.53-.21,3.9C370.51,387.89,370.51,387.89,371.69,385.45Z" transform="translate(-214 -222.89)"/><path class="cls-17" d="M380.31,383.34a3.6,3.6,0,0,1,.81,1.94c0,.52.56,1,0,1.56-.18.18-.37.36-.58.14a1.69,1.69,0,0,1-.53-1.52Z" transform="translate(-214 -222.89)"/><path class="cls-19" d="M375.79,380.22a7.91,7.91,0,0,1,.45,5.33A22,22,0,0,1,375.79,380.22Z" transform="translate(-214 -222.89)"/><path class="cls-19" d="M367.34,424.71a5.75,5.75,0,0,1-.3,4.78C366.58,427.72,367.39,426.26,367.34,424.71Z" transform="translate(-214 -222.89)"/><path class="cls-8" d="M346.72,391.46a4.2,4.2,0,0,1,1.66-1.29,1.6,1.6,0,0,1-.28,1.94C347.47,392.79,347.33,391.11,346.72,391.46Z" transform="translate(-214 -222.89)"/><path class="cls-20" d="M319,494a8.45,8.45,0,0,0-.49-.89c-.75-1-1.41-2.45-2.29-2.78-1.11-.42-.87,2.13-1.83,2.6a2.17,2.17,0,0,1-.63.34c.55-1.36.19-2.86.51-4.24a1.83,1.83,0,0,0-1.2-2.37c-.7-.3-.18-1.61-.64-2.24s0,1.38-.6.4c-1.52-2.34-2.07-5.59-3.74-7.73-1.22-1.57-1.76-3.8-3-5.4l-.58,1.88-.63-1.39c-.38-.86-.37-.84.35-1.3.48-.31.2-.78,0-1.11-.76-1.56-1.13-3.47-2.36-4.68.08,2-1.77,2.38-1.87,4.6a3.34,3.34,0,0,1,.22-3.41c.5-.82.38-1.87.82-2.67s-.39-1.15-.35-1.83c-.63.1-1-.85-1.45-.93-.63-.09-.78,0-.52-.71,1.19-3.27-.64-5.26-1.6-7.62.57-1.5,1-.13,1.29.25a107.56,107.56,0,0,1,11.79,18.55,171.49,171.49,0,0,1,8,17.84c.65,1.71,1.14,3.55,1.79,5.61Z" transform="translate(-214 -222.89)"/><path class="cls-16" d="M335.12,356.14c-.19.91.25,1.8-.3,2.5a3,3,0,0,1-.23-1.78,3.92,3.92,0,0,0-.83-2.44,2.63,2.63,0,0,1,.39-3.15,11.45,11.45,0,0,1,2.33,6.38c0,.37.53.81.08,1.09s-.76-.38-.71-.87A1.61,1.61,0,0,0,335.12,356.14Z" transform="translate(-214 -222.89)"/><path class="cls-21" d="M347.38,361.82c-.49-1.88.88-2.93,1-4.55,2.69,2.93,2.69,2.93,1.7,4.65L349,359.8c0,.95.2,1.83-.45,2.48s-.74-.36-1.13-.46Z" transform="translate(-214 -222.89)"/><path class="cls-21" d="M353.77,351.2c1,1.72,1,3.65.78,5.76-.81-.52-.26-1.36-.4-2-.88.05-1.38.63-1.32,2C351.68,354.45,352.67,352.84,353.77,351.2Z" transform="translate(-214 -222.89)"/><path class="cls-16" d="M329.62,347.63a3.26,3.26,0,0,1,.11,3.1c-1.36,2-1.42,2-1.69,3.28C327.59,352.48,327.59,352.48,329.62,347.63Z" transform="translate(-214 -222.89)"/><path class="cls-21" d="M356.93,363.11c-.26-2-.33-3.66-1.4-4.77-.68-.71-.06-1.64.06-2.48C357.38,357.92,357.74,359.66,356.93,363.11Z" transform="translate(-214 -222.89)"/><path class="cls-16" d="M343.14,359.82c.29.41-.35,2.22,1,1.49.21-.12.14,1.13.09,1.58s-.68,1.2-1,1.14c-.8-.16-1.5-.76-1.52-2.18,0-.35.1-.77.27-.65C343.44,362.24,342.29,359.9,343.14,359.82Z" transform="translate(-214 -222.89)"/><path class="cls-16" d="M345.27,347.63a4,4,0,0,1,.11,3.22c-1.3-1.08-.6,1.56-1.62,1.25a3.34,3.34,0,0,1-.46-.9c-.29-1-.09-1.23.78-1.59C344.72,349.34,345,348.38,345.27,347.63Z" transform="translate(-214 -222.89)"/><path class="cls-16" d="M328.78,360.05a8.46,8.46,0,0,1-2-3.14c.28-.54.55-1.08.82-1.62C327.69,357.08,329.78,357.85,328.78,360.05Z" transform="translate(-214 -222.89)"/><path class="cls-22" d="M292.41,368.68c-.49-1.6-1.2-2.84-.79-4.9.31-1.57,1.29-.57,1.51-1.52.2.73.73,1.26.67,2.15A8.9,8.9,0,0,1,292.41,368.68Z" transform="translate(-214 -222.89)"/><path class="cls-23" d="M296.93,579.74c-.65,0-1.3,0-1.94,0s-1.2.36-1.52-.34.17-1.57.44-2.28c.81-2.09,2.19-2.58,3.73-2.32s2.43,1.43,2.85,3.49c.24,1.16,0,1.51-.8,1.47S297.85,579.74,296.93,579.74Z" transform="translate(-214 -222.89)"/><path class="cls-24" d="M320.51,589.31a3.33,3.33,0,0,1-2.47-.67,3.13,3.13,0,0,1-1-2.64,2.16,2.16,0,0,1,1.1-2c1.38-1,2.85-.56,4.29-.51.5,0,.74.54.78,1.22,0,.31,0,.61,0,.91C323.32,589.32,323.32,589.32,320.51,589.31Z" transform="translate(-214 -222.89)"/><path class="cls-25" d="M299.89,481.67c-.74-1.68-2.36-2.29-1.65-4.67l1,1.28c.11-.19.23-.31.22-.4a65.24,65.24,0,0,0-1.47-8.55c-.12-.54-.48-1.07,0-1.63.23-.28.45-.45.7-.1a2.61,2.61,0,0,1,.63,1.75c-.1,2.16,1.05,3.72,1.13,6.32,1.36-3.13,1.36-3.13,2.27-.82C301.36,476.9,299.06,477.67,299.89,481.67Z" transform="translate(-214 -222.89)"/><path class="cls-25" d="M295.71,468.59c.36,1.46.69,3.55,0,3.44-1.14-.2-.71,2.22-1.9,1.55-.41-.23-.6,1.27-.38,2.07.48,1.76-.83,1.76-1.2,1.81-.6.07-.32-1.06-.4-1.7-.59-.2-.36.76-.67.95-.55-1.79-.55-1.79.73-2.54a.3.3,0,0,1,.16,0c-.15-2.18,2.11-1.73,2.11-3.91C294.16,469,295.77,470.68,295.71,468.59Z" transform="translate(-214 -222.89)"/><path class="cls-25" d="M272,448.08c.17.92-.09,2,.72,3-.27-1.8,1.13-1.39,1.36-2.53.9,1.53,1-.56,1.56-.68.26-.06.41.07.57.27a.84.84,0,0,1,0,1.15,5.72,5.72,0,0,0-1,2.85c-.43-.35-.09-1.35-.58-1.43s-.58.75-.86,1.17-.44,1.7-1.13,1.18-2-.56-2.05-2.33c0-.4-.1-1.25.31-1C272.57,450.5,271.31,448.24,272,448.08Z" transform="translate(-214 -222.89)"/><path class="cls-25" d="M306.6,487.65c-.59-.15,0-2-1.06-1.32,0,0-.3-.34-.28-.38.84-1.89-.57-3.54-.27-5.52.22-1.49.24-2.22,1.49-2.61.66-.21.63.09.62.48-.07,1.3.06,2.65-.71,3.79-.48.7-.37.86.39,1.24.34.17.31.41.24.85C306.84,485.32,306.73,486.49,306.6,487.65Z" transform="translate(-214 -222.89)"/><path class="cls-25" d="M279.27,462.57c-1.19-.33-1.08-1.84-1.42-3s-.79-2.27-1.19-3.41c.42-.68,0-1.94.86-2.35.35.43.22.83.06,1.38-.24.85-.33,1.67.76,1.15.47-.22.65.91.69,1.24a14.26,14.26,0,0,0,1.54,5.25,2.19,2.19,0,0,1-.09,2.06C279.62,464.59,280.06,463,279.27,462.57Z" transform="translate(-214 -222.89)"/><path class="cls-25" d="M287.9,452c-.66-2.26-.91-4.5-2.39-5.78-.51-.23,0,1.58-.68,1-1.17-1-.73-2.61-.61-4.22.51.53,0,1.53.69,1.91.38-1.77,1.46-.67,2.27-1,.26-.1.26.23.24.37-.32,2.3.78,4.26.79,6.48A6.74,6.74,0,0,1,287.9,452Z" transform="translate(-214 -222.89)"/><path class="cls-25" d="M264.78,433.79c.27,1.78,1,4.28-.33,5-1.14.58-.75,1.36-1.08,2.12-.69,1.59.86,1.91.49,3.16-.56-1-2-.84-1.17-3.62A65.89,65.89,0,0,0,264.78,433.79Z" transform="translate(-214 -222.89)"/><path class="cls-25" d="M279.2,462.63c.34,2,.41,4.07-.72,5.82-.15.22-.11.8-.45.65a1.36,1.36,0,0,1-.53-.78,3,3,0,0,1,1.19-3.82C279.24,464.11,278.67,463,279.2,462.63Z" transform="translate(-214 -222.89)"/><path class="cls-25" d="M267.53,449.65c.1,2.5.13,4.39-.85,6.19-.26-1.39-1.39-2.19-1.31-3.6C265.45,450.68,267,451.43,267.53,449.65Z" transform="translate(-214 -222.89)"/><path class="cls-25" d="M278.46,438.8c.94,1.88-.21,3.55-.23,5.31,0,.5-.45-.85-1-.13-.32.43-.43-.31-.37-.78.15-1.31-.15-2.9,1.18-3.46C278.24,439.67,278.32,439.15,278.46,438.8Z" transform="translate(-214 -222.89)"/><path class="cls-26" d="M273,454.36c.43,1.25,1.09,2.55.77,3.93-.23,1-1.58-.41-1.83,1.29a19,19,0,0,1-.57-2,2.36,2.36,0,0,1,.21-1C273.16,457.2,272.26,454.91,273,454.36Z" transform="translate(-214 -222.89)"/><path class="cls-25" d="M275.4,444.9c-.25.79-.4,1.47-.95,1.75-.23-.91-1.57-.22-1.32-1.71.17-1,.21-2.49,1.05-2.52C275.21,442.38,274.74,444.28,275.4,444.9Z" transform="translate(-214 -222.89)"/><path class="cls-25" d="M287.09,470.78c-1.19.94-1.28,2.73-1.83,4.79-.17-1.72-.42-3-1.43-3.42.46-1.54.48-1.57,1.32-.93.51.39.64-.27.87-.57C286.44,470.09,286.78,469.83,287.09,470.78Z" transform="translate(-214 -222.89)"/><path class="cls-27" d="M268.09,441.1a7.09,7.09,0,0,1-.68-1.53c-.1-.56.06-1.21-.05-1.76-.27-1.36-.56.61-.74.06a8.81,8.81,0,0,1,.05-4.56C267.32,436,268.67,437.93,268.09,441.1Z" transform="translate(-214 -222.89)"/><path class="cls-25" d="M293.44,451.62a7,7,0,0,1-1.9,6.1C291.42,454.91,292.76,453.47,293.44,451.62Z" transform="translate(-214 -222.89)"/><path class="cls-26" d="M289.81,469.39a15.89,15.89,0,0,0-1.84,5.17c-.31-.69-.61-1.23-.82-1.84-.37-1-.32-.94.56-1.39S288.79,469.54,289.81,469.39Z" transform="translate(-214 -222.89)"/><path class="cls-26" d="M271.65,439.57a4,4,0,0,1-.09-3.45c.36-.05.35,2.2,1.08.41,0-.1-.33-1.16.5-.54,1,.72.66,1.31.36,2.22-.18.55-.06.93-.57.18S271.86,438.3,271.65,439.57Z" transform="translate(-214 -222.89)"/><path class="cls-26" d="M275.74,456.52c-.63.41-.15,1.44-.62,2a11.72,11.72,0,0,0-.65-3.29c-.21-.5-.47-1,.2-1.1.28-.05.86-.69.8.22-.08,1.21,1.67.57,1,2.16-.16.37.35,1.19-.32,1.2S276.16,456.74,275.74,456.52Z" transform="translate(-214 -222.89)"/><path class="cls-27" d="M280.63,466.35c2,1.75.28,4,.46,6C281.14,470.29,279.86,468.44,280.63,466.35Z" transform="translate(-214 -222.89)"/><path class="cls-27" d="M308.72,483.36c.87,1.47,2,2.76.24,4.45C308.61,486.37,307.72,485.08,308.72,483.36Z" transform="translate(-214 -222.89)"/><path class="cls-28" d="M290.53,445.54c.76,2.27-.38,4.57.87,6.74C289.91,451.51,289.61,448.11,290.53,445.54Z" transform="translate(-214 -222.89)"/><path class="cls-27" d="M266.06,449.45c-.11-1.57-.93-2-.95-3.3s.51-1.31.86-1.34.76.7.69,1.37C266.56,447.11,266.33,448,266.06,449.45Z" transform="translate(-214 -222.89)"/><path class="cls-27" d="M283.44,475.27c-2.59-1.38-.16-2.95-.11-4.71A7.48,7.48,0,0,1,283.44,475.27Z" transform="translate(-214 -222.89)"/></g><g id="Layer_2" data-name="Layer 2"><rect class="cls-29" width="213" height="384.06"/></g></svg>